<?xml version="1.0" encoding="UTF-8"?>
<!DOCTYPE svg PUBLIC "-//W3C//DTD SVG 1.1//EN" "http://www.w3.org/Graphics/SVG/1.1/DTD/svg11.dtd">
<!-- Creator: CorelDRAW -->
<svg xmlns="http://www.w3.org/2000/svg" xml:space="preserve" width="2048px" height="2048px" style="shape-rendering:geometricPrecision; text-rendering:geometricPrecision; image-rendering:optimizeQuality; fill-rule:evenodd; clip-rule:evenodd"
viewBox="0 0 2048 2048"
 xmlns:xlink="http://www.w3.org/1999/xlink">
 <defs>
  <style type="text/css">
   <![CDATA[
    .fil2 {fill:none}
    .fil0 {fill:#424242}
    .fil1 {fill:white}
    .fil3 {fill:white;fill-rule:nonzero}
   ]]>
  </style>
 </defs>
 <rect class="fil0" width="2048" height="2048"/>
 <g id="Layer_x0020_1">
  <metadata id="CorelCorpID_0Corel-Layer"/>
  <path class="fil1" d="M1046.94 363.151c90.8635,0 173.128,36.8327 232.677,96.3828 59.55,59.5489 96.3828,141.814 96.3828,232.677 0,90.8623 -36.8327,173.128 -96.3828,232.677 -59.5489,59.55 -141.814,96.3828 -232.677,96.3828 -90.8635,0 -173.128,-36.8327 -232.677,-96.3828 -59.55,-59.5489 -96.3828,-141.815 -96.3828,-232.677 0,-90.8635 36.8327,-173.128 96.3828,-232.677 59.5489,-59.55 141.814,-96.3828 232.677,-96.3828zm65.6623 183.358l-6.80315 13.0949 -10.4953 20.198 -22.0866 -5.54174c-8.06575,-2.02205 -16.024,-3.20906 -23.8252,-3.54922 -7.96418,-0.348425 -15.9532,0.120473 -23.9173,1.41024l-21.7784 3.53032 -8.99883 -20.2146 -5.66457 -12.7287 -13.0854 5.82048 5.3504 11.987 9.2752 20.7791 -18.0685 13.8319c-6.45827,4.9441 -12.2835,10.4185 -17.4284,16.3689 -5.19567,6.00827 -9.75828,12.535 -13.6441,19.5225l-10.937 19.6677 -21.6449 -5.8004 -12.2705 -3.28819 -3.67205 13.715 12.228 3.27638 21.6366 5.79685 -0.328347 22.389c-0.115748,7.98071 0.64252,16.1126 2.26063,24.3284 1.58504,8.05158 3.98032,15.8669 7.17048,23.3811l8.87599 20.915 -18.2339 13.4693 -10.6323 7.8567 8.51575 11.5039 11.2169 -8.30434 17.8382 -13.2047 17.3362 13.8815c6.12166,4.90158 12.8185,9.21024 20.0362,12.8906 7.35591,3.75118 14.7874,6.66851 22.2366,8.71418l21.9768 6.0378 -0.78189 22.598 -0.516142 14.928 14.3032 0.497244 0.56693 -15.8162 0.790158 -22.0689 21.5327 -4.9878c7.56024,-1.75158 14.9244,-4.24725 22.0382,-7.46221 6.92835,-3.1311 13.6571,-7.02993 20.1366,-11.6681l18.2977 -13.1032 17.2134 14.6799 12.4961 10.6559 9.27284 -10.8626 -12.8528 -10.9736 -16.9063 -14.4343 9.69095 -19.9512c3.38386,-6.96969 6.08504,-14.2665 8.05512,-21.7311 1.96299,-7.43859 3.20551,-15.0236 3.67796,-22.5898l1.39606 -22.3335 21.9414 -4.27205 16.4398 -3.19961 -2.71654 -13.9854 -16.161 3.14764 -22.0512 4.29567 -9.51497 -20.5299c-3.31181,-7.14686 -7.25788,-13.8602 -11.8099,-20.0906 -4.71615,-6.45473 -9.8941,-12.2787 -15.502,-17.4189l-16.3642 -14.9976 10.1634 -19.5 7.29804 -14.0043 -12.5728 -6.5563zm-48.2185 -32.3103l4.38071 -8.43072 0.113386 0c2.61142,-5.00552 6.07087,-9.2941 10.1197,-12.678 4.19646,-3.5067 9.0189,-6.18071 14.2063,-7.82008 5.29607,-1.67126 10.774,-2.25236 16.1386,-1.78937l-0.0011811 0.00944883c5.22756,0.465355 10.4705,1.99488 15.4323,4.54016l0.22441 0.113386 40.7835 21.2646 0.022441 -0.0425197c10.3004,5.34922 17.4177,14.289 20.6327,24.4217l-0.102756 0.0330709c3.19843,10.0984 2.56063,21.4158 -2.63032,31.5331l0 0.225591 -5.14843 9.87639c2.62559,3.09803 5.11772,6.26103 7.47284,9.48426 2.32677,3.18425 4.54489,6.4441 6.65197,9.77599l11.1827 -2.17795c11.2559,-2.17795 22.3583,0.411024 31.1847,6.36969 8.82638,5.95748 15.4028,15.3236 17.6079,26.6977l8.79804 45.3 0 0.113386c2.14016,11.2158 -0.442914,22.2626 -6.3756,31.0524 -5.95276,8.81694 -15.2669,15.3874 -26.5654,17.6067l-0.113386 0 -11.752 2.28898c-0.735827,3.77362 -1.59567,7.52127 -2.57599,11.2323 -0.992127,3.76181 -2.10827,7.49056 -3.3437,11.1756l9.20079 7.85552c4.11733,3.52205 7.48347,7.85434 9.96733,12.7134 2.5252,4.9441 4.08426,10.187 4.5437,15.4335l0 0.901182c0.119291,2.10354 0.0720473,4.31929 -0.154725,6.62126l-0.0106299 -0.0011811c-0.255118,2.55473 -0.643701,4.81536 -1.16221,6.73465 -0.775985,2.89607 -1.91339,5.81103 -3.41811,8.66694 -1.37244,2.60788 -3.10748,5.1626 -5.21457,7.60749l0.0177165 0.0153543 -29.961 35.0988c-7.54016,8.76142 -17.8417,13.6677 -28.402,14.4969l-0.113386 0c-10.5461,0.823229 -21.4406,-2.41181 -30.1843,-9.92009l-8.6067 -7.33938c-3.45709,1.84725 -6.98504,3.58465 -10.578,5.20867 -3.69331,1.6689 -7.45394,3.21142 -11.2784,4.62402l-0.396851 11.0976 -0.0011811 0 0 0.0354331c-0.421654,11.4862 -5.42599,21.7217 -13.1976,28.9807 -7.7315,7.22245 -18.2351,11.4945 -29.7059,11.1059l0 -0.0011811 -0.0354331 0 -45.2008 -1.56496 0 0.0814961 -0.0011811 0 -0.902363 -0.113386c-11.6008,-0.405118 -21.8764,-5.42245 -29.1319,-13.2047 -7.04528,-7.56142 -11.2713,-17.7319 -11.1213,-28.8248l-0.0921261 0 0 -0.0011811 0.112205 -0.902363 0.333071 -9.62599c-3.89646,-1.62756 -7.68426,-3.38032 -11.3587,-5.25355 -3.87638,-1.97599 -7.69489,-4.11496 -11.4496,-6.41339l-7.35827 5.44725 -0.00236221 -0.00354331 -0.022441 0.022441c-9.26221,6.86103 -20.3563,9.3378 -30.8126,7.79174 -10.5083,-1.55315 -20.4555,-7.15158 -27.3544,-16.4209l0.00236221 -0.00236221 -0.022441 -0.022441 -27.4784 -37.115 -0.113386 -0.113386c-3.2563,-4.43622 -5.58071,-9.3945 -6.8752,-14.5843l0 -0.112205c-1.31457,-5.27835 -1.61693,-10.7551 -0.800788,-16.1457l0.113386 -0.113386c0.851575,-5.45433 2.71654,-10.565 5.42599,-15.098 2.79449,-4.66772 6.40749,-8.73662 10.6807,-11.961l0.225591 -0.113386 6.39331 -4.72323c-1.21417,-4.33583 -2.25236,-8.6941 -3.11339,-13.0677 -0.859843,-4.36418 -1.54843,-8.79331 -2.05984,-13.2827l-7.46812 -2.00197c-11.0811,-2.97756 -19.937,-10.1787 -25.2744,-19.4055 -5.35394,-9.25513 -7.19174,-20.5252 -4.22599,-31.604l11.941 -44.5855c2.96693,-11.048 10.2248,-19.9016 19.5284,-25.2697 9.2504,-5.33741 20.4957,-7.17402 31.5107,-4.22481l7.51772 2.01378c2.53819,-3.41693 5.19922,-6.73465 7.97953,-9.94961 2.74607,-3.17717 5.60434,-6.2504 8.57009,-9.21733l-3.20906 -7.18819 -0.113386 -0.226772c-2.15906,-4.963 -3.33425,-10.3252 -3.46772,-15.7665 -0.132284,-5.4189 0.745276,-10.7953 2.68583,-15.8291l-0.0212599 -0.00826772c1.96536,-5.12363 4.9193,-9.76536 8.64095,-13.7055 3.75355,-3.96969 8.23347,-7.19528 13.2189,-9.44883l0.113386 0 42.0803 -18.7169 -0.0200788 -0.0413386 0.0448819 -0.0200788 0.226772 -0.113386c10.474,-4.61693 21.8043,-4.58977 31.6725,-0.806694 9.93426,3.80788 18.4193,11.4236 23.1059,21.9437l0.225591 0.452363 0.0188977 0.0448819 -0.0212599 0.00826772 3.5315 7.93347c4.34528,-0.138189 8.69056,-0.111024 13.0299,0.0779528 4.19646,0.183071 8.36812,0.512599 12.5114,0.98504z"/>
  <rect class="fil2" width="2048" height="2048"/>
  <rect class="fil2" x="255.999" y="255.999" width="1536" height="1536"/>
  <path class="fil3" d="M1152 1055.87l-53.0304 -0.0330709c2.01142,1.28386 3.89646,2.73544 5.6315,4.33465 7.73977,7.13386 12.5445,17.0988 12.5445,28.2107l-2.66693 10.95 -41.8323 82.7138 0.0177165 0.18189 0.0956694 0.285827 22.0795 291.292 -0.046063 0.00354331c0.312992,3.4937 -0.0897638,6.69095 -0.972048,9.65788l0 0.0944883c-0.794883,2.66339 -1.88977,4.87914 -3.09213,6.80552l-1.14213 1.61929 -44.2807 59.9894 0 0.0956694c-2.61496,3.50315 -5.97756,6.27402 -10.0028,8.24056l0.0165354 0.0377953c-3.79843,1.84725 -7.88268,2.79921 -12.1488,2.79921l-0.0708662 0c-4.24843,0 -8.61615,-1.1126 -12.541,-3.12756l-0.0956694 0c-3.90709,-2.01614 -7.41497,-5.02678 -10.0264,-8.88662l-0.0212599 0.0141732 -41.1461 -60.0567 -0.0956694 -0.191339c-1.73622,-2.59134 -2.94921,-5.26536 -3.69567,-8.04213l0.0637796 -0.0165354c-0.707481,-2.6315 -1.03701,-5.0067 -1.03701,-7.18583l0.0956694 -1.7126 20.5772 -291.334 0.0933072 -0.475985c0.0720473,-0.785434 0.174803,-1.55788 0.309449,-2.31969l-41.8725 -80.1969 -2.85827 -11.2347c0,-11.0268 4.79174,-20.9681 12.5256,-28.1209 1.80827,-1.67244 3.77481,-3.18662 5.87245,-4.51654l-52.3134 -0.0318898 0 0.125197c-105.866,0 -203.499,38.1555 -274.06,100.652 -68.0965,60.3142 -110.876,143.471 -110.876,236.638l0 278.817c173.405,48.1288 378.411,84.3107 578.389,84.3107 158.623,0 313.493,-22.8402 445.61,-80.7839l0 -282.344c0,-93.2316 -42.5965,-176.385 -110.516,-236.653 -70.3241,-62.4024 -167.68,-100.48 -273.482,-100.48l0 -0.125197z"/>
 </g>
</svg>
